<?xml version="1.0" encoding="utf-8"?>
<!-- Generator: Adobe Illustrator 18.0.0, SVG Export Plug-In . SVG Version: 6.00 Build 0)  -->
<!DOCTYPE svg PUBLIC "-//W3C//DTD SVG 1.1//EN" "http://www.w3.org/Graphics/SVG/1.1/DTD/svg11.dtd">
<svg version="1.1" id="Слой_1" xmlns="http://www.w3.org/2000/svg" xmlns:xlink="http://www.w3.org/1999/xlink" x="0px" y="0px"
	 viewBox="0 198 768 826" enable-background="new 0 198 768 826" xml:space="preserve">
<path fill="#000000"      d="
	M564.5,288.7l-2.1,16.3l-2.6,0.9l-8.6-7.3l-3-6l-7.3-9.9l-0.9,3.4l2.6,5.1l1.7,5.6l8.6,6.9l0.9,5.6l9.4,15c0,0,5.1,13.7,7.3,13.7
	c2.1,0,3,7.3,5.1,6.9c2.1-0.4,6.4,6,6.4,6l-2.6,0.4l3.4,9l13.7,12.4c0,0-3.9,2.6,0.4,3.9s5.6,15.4,5.6,15.4s0.4,17.6,4.3,16.7
	c3.9-0.9,2.1,5.1,8.6,5.6c6.4,0.4,12,23.6,12,23.6l1.7,2.6l4.3,7.7l2.1,0.4l1.7-1.3l3.4,6l2.1-2.1l5.1,5.1l2.6-0.9l3,2.6l6.9,6.4
	l6,4.3l0.2,3.5h3.6l6.8,6v6.7l-6.2,6l6.2,1.7l13.7,11.4h7.7l6.4-5.7c0,0,3.4,0.3,6.4,0.3c3,0,10.3-4.3,10.3-4.3l11.6-0.9l2.1-2.6
	l5.1-1.7l4.3-1.7l7.3,0.4l9.4-4.3l3.4,0.1v4.4v2.2v3.3v7.2l-2.8,3c0,0,2.4,13.7,0.2,13.3c-2.1-0.4-4.7,8.1-4.7,8.1
	c-3.9,0.9-14.1,35.1-14.1,35.1c-2.1,0-12.4,18-12.4,18l-13.4,11.8v3.1L702.4,605l-15.4,15l-26.1,27.4c-2.6-0.4-6.9,7.3-6.9,7.3
	l-6.5,5.6c-2.7,6.9-11.5,21.4-11.5,21.4l-4.7,10.3c-3.9,6.4,1.7,9.9,1.7,9.9l5.1,8.1l-3,5.1l0.9,6.4l-2.1,1.7l2.6,3l4.7,13.3
	l0.4,4.3l5.9,5.6v6.8l-4.7,7.3l2.2,12.9l-2.6,1.3l2.6,2.6l-2.1,9l2.1,8.1l-3.4,6l1.7,4.7l-5.6,3c0,0-5.1,3.4-4.7,4.7
	c0.4,1.3-4.3,4.7-4.3,4.7l-6.4,6c0,0-3.9-3.4-7.3-0.4c-3.4,3-15.9,6.8-15.9,6.8v3.9l-2.2,0.5v2.1l-6.6,5.6v-3.4l-5.7,6l-9.5,9.4
	c-3.4,3.4,0.4,8.6,0.4,8.6l2.1,8.1c-3.9,6.9,2.2,7.7,2.2,7.7l-2.1,15c-2.1,4.7,2.1,6,2.1,6l-10.7,9.4l-21.4,8.6l-1.7,6.4l3.4-0.9
	l-0.4,1.4l-2.1,6.8l-7.7,20.1l-61.3,56h-11.1l1.3,3.7c0,0-7.3-0.6-9.4,0.7c-2.1,1.3-5.1-0.9-5.1-0.9s-11.6,1.3-14.6-0.4
	c-3-1.7-10.3,2.1-10.3,2.1l-13.3,0.4l-3,3.9c-8.1,0.9-6.4-2.1-9.9-2.1s-8.6-8.6-8.6-8.6l-4.7-8.1l0.8-5h3.4l-1.3-9.7L375.9,950
	l-15-14.6l-1.7-10.7l-2.1-7.7l0.4-10.3l-3.9-6l-1.3-21l-27-48.9l-2.6-8.1c0,0,1.3-6.4,0-8.6s2.1-10.7,2.1-10.7s7.3-22.3,7.3-24
	c0-1.7,2.6-0.4,3-5.1c0.4-4.7,8.6-9.4,8.6-9.4l1.7-12.9c0,0,4.3-6.4,0.4-7.3c-3.9-0.9-7.3-15.4-7.3-15.4l3-3l-2.1-12.4l-8.6-13.3
	l-0.2-8.7h-3.7c0,0-0.4-7.9-0.9-9.1c-0.4-1.3-32.1-35.7-32.1-35.7l-1.3-6.4l-2.6-5.1l4.7-4.5l0.7-4.9h5.3l-0.9-3.4
	c-3.9,0.4-2.6-3.4-2.6-3.4l2.5-5.3h-3l-1.7-2l4.7-8.6l-0.4-7.7l2-2v-4.9l-3.2-3.9l1.5-2.8h-4.2c-4.7-1.1-4.3-6.1-6-4.8
	c-1.7,1.3-3.4-4.4-3.4-4.4c-2.6-5.6-3.9,2.6-3.9,2.6l-7.7-0.9c-0.9-2.1-7.3,1.6-7.3,1.6c-12,5-16.7-10.6-16.7-10.6
	c-0.9-4.7-9.9-9.9-9.9-9.9l-36.4,1.3l-2.1,3.4l-11.6,2.1c-6-0.4-22.7,9.4-22.7,9.4l-13.7-5.1c-8.1-2.1-33,6.4-33,6.4
	c-20.6,8.6-31.7-4.7-31.7-4.7l-27.4-22.3l-9.4-5.6c-2.6-4.3-6.4-6.9-6.9-8.1c-0.4-1.3-4.7-6-4.7-6c1.7-6.9-5.1-16.3-5.1-16.3
	l-6.9-5.6l0.7-6.1h-3.3l-3.4-2.7l-3.4-4l-1.9-5.3h-4.4h-1.8l-2.6-5.5H5.2v-11l3.9-5.6l-4.7-10.3C1,454.6,2.2,449,2.2,449l8.5-8v-6.5
	l3.2-6.9l2.9-3.9l2.6-6l0.4-18.4l-2.1-3.4l2.6-5.6l0.9-8.1h-3.1l-1.3-6.6h-2.5c-0.9-5.5,10.7-19.7,10.7-19.7l3-5.1l17.6-21.4
	c-2.6-6.9,8.1-14.1,8.1-14.1c3.4-0.9,6.9-4.3,10.7-8.6c3.9-4.3,4.7-7.7,8.1-8.1c0.5-0.1,1-0.1,1.7-0.2c4-0.5,10.8-1.5,13.7-4.1
	c3.4-3,9-6.9,9-6.9c0.4-0.3,0.8-0.5,1.2-0.8c14.3-9.9,8.2-17.2,8.2-17.2c2.1-9,6.9-15.4,6.9-15.4s2.8,0.2,3-4.3
	c0.3-7.8,28.7-18,28.7-18c7-17.5,15.9-22.5,17.4-18.1c1.5,4.4,6.2,6.5,6.2,6.5l15.9,0.9l4.3,3.4l9-0.4l5.1-6.9l11.1-0.4
	c-1.3-3.9,10.7-6.9,10.7-6.9l12,0.4l2.6-1.7l8.6-0.9l21-0.4c0,0,7.7-3,10.3-1.3s6,2.1,6.4,0c0.4-2.1,12.4,1.7,12.4,1.7l4.7-3.5
	l8.1,0.1c2.1-0.9,4.7,5.6,4.7,5.6c3-2.6,5.6-2.6,5.6-2.6c3,1.7-3.4,6.4-3.4,6.4c-4.7,1.3,3,10.3,3,10.3c4.3,3-11.6,15.9-11.6,15.9
	c-1.3,5.1,5.6,4.7,5.6,4.7c-0.4-4.3,5.1-1.7,5.1-1.7c-0.9,6.4,2.1,8.1,2.1,8.1c0.9,3,16.7,2.6,16.7,2.6c3.9,0.4,24,7.7,24,7.7
	c-0.4,11.1,20.8,15.9,20.8,15.9c5-0.9,14.7,5.6,14.7,5.6c12.4,2.1,12.4-11.6,12.4-11.6c-7.3-10.3,11.1-16.3,11.1-16.3
	c4.7-3.9,19.3,2.1,18.4,2.6c-0.9,0.4,2.5,5.1,2.5,5.1h14.6c4.7,2.2,6.4,6.6,6.4,6.6c8.6-4.1,39,5.5,39,5.5s11.6-4.3,11.6-7.2
	c0-2.9,8.6,1.7,8.6-0.5c0-3.3,9.4,0,9.4,0c3.4,5.5,21.6,1.3,21.6,1.3C560.2,271.4,564.5,288.7,564.5,288.7z M739.4,774.8l-2.8,1.7
	l-1.8,8.1l-2.4,2.5l-1.6,2.5h-5.3v6.6h-3.3v6l-2.2,2.1v-3.2l-4.4,3.2v7.2h-3.3v-3.8l-5.9,3.9l2.1,4.4h-3.9v-2.7l-7.7,0.5v2.7
	l-3.9-2.3l-5.1,2.3l-4.2,2.4v5.3l-6.5,7.6l1.7,6l2.1,20.6l-0.9,2.6l-7.3,12.9l-6.8,4.7l-2.1,7.3v9.8v4.4l3.6,3.8l-1.4,3.4v11.4
	l11,9.3h6c0,0,5.1-5.3,7.3-2.8l8.6-1.7l33.9-67.3l4.6-21.4l5.5-9v-12.5l3.2,1l2.1,3.9l2.1-3.4l-1.7-5.6l1.7-12l-2.6-1.7l-0.9-15
	C747.1,780.3,739.8,770.2,739.4,774.8z M266.5,622.7h-3.3v3.3h3.3V622.7z M274.2,605.1h-3.3v3.3h3.3V605.1z"/>
</svg>
